<mxfile host="app.diagrams.net" agent="Mozilla/5.0 (Windows NT 10.0; Win64; x64) AppleWebKit/537.36 (KHTML, like Gecko) Chrome/137.0.0.0 Safari/537.36" version="27.1.6">
  <diagram name="Página-1" id="Pc5qEPss1sojoh0azxy9">
    <mxGraphModel dx="1678" dy="914" grid="1" gridSize="10" guides="1" tooltips="1" connect="1" arrows="1" fold="1" page="1" pageScale="1" pageWidth="1169" pageHeight="827" math="0" shadow="0">
      <root>
        <mxCell id="0" />
        <mxCell id="1" parent="0" />
        <mxCell id="wrkvcQ_q3QfgYqhIHPEw-163" value="" style="edgeStyle=orthogonalEdgeStyle;rounded=0;orthogonalLoop=1;jettySize=auto;html=1;endArrow=none;startFill=0;" edge="1" parent="1" source="wrkvcQ_q3QfgYqhIHPEw-160" target="wrkvcQ_q3QfgYqhIHPEw-161">
          <mxGeometry relative="1" as="geometry" />
        </mxCell>
        <mxCell id="wrkvcQ_q3QfgYqhIHPEw-166" value="" style="edgeStyle=orthogonalEdgeStyle;rounded=0;orthogonalLoop=1;jettySize=auto;html=1;endArrow=none;startFill=0;" edge="1" parent="1" source="wrkvcQ_q3QfgYqhIHPEw-160" target="wrkvcQ_q3QfgYqhIHPEw-165">
          <mxGeometry relative="1" as="geometry" />
        </mxCell>
        <mxCell id="wrkvcQ_q3QfgYqhIHPEw-160" value="Endereco" style="rounded=0;whiteSpace=wrap;html=1;" vertex="1" parent="1">
          <mxGeometry x="80" y="20" width="120" height="60" as="geometry" />
        </mxCell>
        <mxCell id="wrkvcQ_q3QfgYqhIHPEw-164" value="" style="edgeStyle=orthogonalEdgeStyle;rounded=0;orthogonalLoop=1;jettySize=auto;html=1;endArrow=none;startFill=0;" edge="1" parent="1" source="wrkvcQ_q3QfgYqhIHPEw-161" target="wrkvcQ_q3QfgYqhIHPEw-162">
          <mxGeometry relative="1" as="geometry" />
        </mxCell>
        <mxCell id="wrkvcQ_q3QfgYqhIHPEw-161" value="Contém" style="rhombus;whiteSpace=wrap;html=1;" vertex="1" parent="1">
          <mxGeometry x="100" y="180" width="80" height="80" as="geometry" />
        </mxCell>
        <mxCell id="wrkvcQ_q3QfgYqhIHPEw-184" value="" style="edgeStyle=orthogonalEdgeStyle;rounded=0;orthogonalLoop=1;jettySize=auto;html=1;endArrow=none;startFill=0;" edge="1" parent="1" source="wrkvcQ_q3QfgYqhIHPEw-162" target="wrkvcQ_q3QfgYqhIHPEw-180">
          <mxGeometry relative="1" as="geometry" />
        </mxCell>
        <mxCell id="wrkvcQ_q3QfgYqhIHPEw-162" value="Fornecedor" style="rounded=0;whiteSpace=wrap;html=1;" vertex="1" parent="1">
          <mxGeometry x="80" y="360" width="120" height="60" as="geometry" />
        </mxCell>
        <mxCell id="wrkvcQ_q3QfgYqhIHPEw-168" value="" style="edgeStyle=orthogonalEdgeStyle;rounded=0;orthogonalLoop=1;jettySize=auto;html=1;endArrow=none;startFill=0;" edge="1" parent="1" source="wrkvcQ_q3QfgYqhIHPEw-165" target="wrkvcQ_q3QfgYqhIHPEw-167">
          <mxGeometry relative="1" as="geometry" />
        </mxCell>
        <mxCell id="wrkvcQ_q3QfgYqhIHPEw-165" value="Contém" style="rhombus;whiteSpace=wrap;html=1;rounded=0;" vertex="1" parent="1">
          <mxGeometry x="280" y="10" width="80" height="80" as="geometry" />
        </mxCell>
        <mxCell id="wrkvcQ_q3QfgYqhIHPEw-172" value="" style="rounded=0;orthogonalLoop=1;jettySize=auto;html=1;endArrow=none;startFill=0;entryX=0.5;entryY=0;entryDx=0;entryDy=0;edgeStyle=orthogonalEdgeStyle;" edge="1" parent="1" source="wrkvcQ_q3QfgYqhIHPEw-167" target="wrkvcQ_q3QfgYqhIHPEw-171">
          <mxGeometry relative="1" as="geometry">
            <mxPoint x="600" y="330" as="targetPoint" />
          </mxGeometry>
        </mxCell>
        <mxCell id="wrkvcQ_q3QfgYqhIHPEw-167" value="Pessoa" style="whiteSpace=wrap;html=1;rounded=0;" vertex="1" parent="1">
          <mxGeometry x="440" y="20" width="120" height="60" as="geometry" />
        </mxCell>
        <mxCell id="wrkvcQ_q3QfgYqhIHPEw-169" value="Pedifo" style="whiteSpace=wrap;html=1;rounded=0;" vertex="1" parent="1">
          <mxGeometry x="800" y="360" width="120" height="60" as="geometry" />
        </mxCell>
        <mxCell id="wrkvcQ_q3QfgYqhIHPEw-176" style="rounded=0;orthogonalLoop=1;jettySize=auto;html=1;entryX=0;entryY=0;entryDx=0;entryDy=0;exitX=1;exitY=0.5;exitDx=0;exitDy=0;endArrow=none;startFill=0;edgeStyle=orthogonalEdgeStyle;" edge="1" parent="1" source="wrkvcQ_q3QfgYqhIHPEw-171" target="wrkvcQ_q3QfgYqhIHPEw-174">
          <mxGeometry relative="1" as="geometry">
            <Array as="points">
              <mxPoint x="720" y="390" />
              <mxPoint x="720" y="640" />
              <mxPoint x="800" y="640" />
            </Array>
          </mxGeometry>
        </mxCell>
        <mxCell id="wrkvcQ_q3QfgYqhIHPEw-171" value="Solicita" style="rhombus;whiteSpace=wrap;html=1;" vertex="1" parent="1">
          <mxGeometry x="460" y="350" width="80" height="80" as="geometry" />
        </mxCell>
        <mxCell id="wrkvcQ_q3QfgYqhIHPEw-177" value="" style="edgeStyle=orthogonalEdgeStyle;rounded=0;orthogonalLoop=1;jettySize=auto;html=1;endArrow=none;startFill=0;" edge="1" parent="1" source="wrkvcQ_q3QfgYqhIHPEw-173" target="wrkvcQ_q3QfgYqhIHPEw-175">
          <mxGeometry relative="1" as="geometry" />
        </mxCell>
        <mxCell id="wrkvcQ_q3QfgYqhIHPEw-173" value="Nota Fiscal" style="whiteSpace=wrap;html=1;" vertex="1" parent="1">
          <mxGeometry x="800" y="20" width="120" height="60" as="geometry" />
        </mxCell>
        <mxCell id="wrkvcQ_q3QfgYqhIHPEw-193" value="" style="edgeStyle=orthogonalEdgeStyle;rounded=0;orthogonalLoop=1;jettySize=auto;html=1;endArrow=none;startFill=0;" edge="1" parent="1" source="wrkvcQ_q3QfgYqhIHPEw-174" target="wrkvcQ_q3QfgYqhIHPEw-179">
          <mxGeometry relative="1" as="geometry" />
        </mxCell>
        <mxCell id="wrkvcQ_q3QfgYqhIHPEw-174" value="Orcaçamento" style="whiteSpace=wrap;html=1;" vertex="1" parent="1">
          <mxGeometry x="800" y="700" width="120" height="60" as="geometry" />
        </mxCell>
        <mxCell id="wrkvcQ_q3QfgYqhIHPEw-178" value="" style="edgeStyle=orthogonalEdgeStyle;rounded=0;orthogonalLoop=1;jettySize=auto;html=1;endArrow=none;startFill=0;" edge="1" parent="1" source="wrkvcQ_q3QfgYqhIHPEw-175" target="wrkvcQ_q3QfgYqhIHPEw-169">
          <mxGeometry relative="1" as="geometry" />
        </mxCell>
        <mxCell id="wrkvcQ_q3QfgYqhIHPEw-175" value="Emite" style="rhombus;whiteSpace=wrap;html=1;" vertex="1" parent="1">
          <mxGeometry x="820" y="180" width="80" height="80" as="geometry" />
        </mxCell>
        <mxCell id="wrkvcQ_q3QfgYqhIHPEw-194" value="" style="edgeStyle=orthogonalEdgeStyle;rounded=0;orthogonalLoop=1;jettySize=auto;html=1;endArrow=none;startFill=0;" edge="1" parent="1" source="wrkvcQ_q3QfgYqhIHPEw-179" target="wrkvcQ_q3QfgYqhIHPEw-169">
          <mxGeometry relative="1" as="geometry" />
        </mxCell>
        <mxCell id="wrkvcQ_q3QfgYqhIHPEw-179" value="Gera" style="rhombus;whiteSpace=wrap;html=1;" vertex="1" parent="1">
          <mxGeometry x="820" y="520" width="80" height="80" as="geometry" />
        </mxCell>
        <mxCell id="wrkvcQ_q3QfgYqhIHPEw-185" value="" style="edgeStyle=orthogonalEdgeStyle;rounded=0;orthogonalLoop=1;jettySize=auto;html=1;endArrow=none;startFill=0;" edge="1" parent="1" source="wrkvcQ_q3QfgYqhIHPEw-180" target="wrkvcQ_q3QfgYqhIHPEw-181">
          <mxGeometry relative="1" as="geometry">
            <Array as="points">
              <mxPoint x="140" y="650" />
              <mxPoint x="140" y="650" />
            </Array>
          </mxGeometry>
        </mxCell>
        <mxCell id="wrkvcQ_q3QfgYqhIHPEw-180" value="Recebe" style="rhombus;whiteSpace=wrap;html=1;" vertex="1" parent="1">
          <mxGeometry x="100" y="520" width="80" height="80" as="geometry" />
        </mxCell>
        <mxCell id="wrkvcQ_q3QfgYqhIHPEw-186" value="" style="edgeStyle=orthogonalEdgeStyle;rounded=0;orthogonalLoop=1;jettySize=auto;html=1;endArrow=none;startFill=0;" edge="1" parent="1" source="wrkvcQ_q3QfgYqhIHPEw-181" target="wrkvcQ_q3QfgYqhIHPEw-182">
          <mxGeometry relative="1" as="geometry" />
        </mxCell>
        <mxCell id="wrkvcQ_q3QfgYqhIHPEw-181" value="Pedido Fornecedor" style="whiteSpace=wrap;html=1;" vertex="1" parent="1">
          <mxGeometry x="80" y="700" width="120" height="60" as="geometry" />
        </mxCell>
        <mxCell id="wrkvcQ_q3QfgYqhIHPEw-187" value="" style="edgeStyle=orthogonalEdgeStyle;rounded=0;orthogonalLoop=1;jettySize=auto;html=1;endArrow=none;startFill=0;" edge="1" parent="1" source="wrkvcQ_q3QfgYqhIHPEw-182" target="wrkvcQ_q3QfgYqhIHPEw-183">
          <mxGeometry relative="1" as="geometry" />
        </mxCell>
        <mxCell id="wrkvcQ_q3QfgYqhIHPEw-182" value="Contém" style="rhombus;whiteSpace=wrap;html=1;" vertex="1" parent="1">
          <mxGeometry x="280" y="690" width="80" height="80" as="geometry" />
        </mxCell>
        <mxCell id="wrkvcQ_q3QfgYqhIHPEw-183" value="Item" style="whiteSpace=wrap;html=1;" vertex="1" parent="1">
          <mxGeometry x="440" y="700" width="120" height="60" as="geometry" />
        </mxCell>
        <mxCell id="wrkvcQ_q3QfgYqhIHPEw-191" value="" style="edgeStyle=orthogonalEdgeStyle;rounded=0;orthogonalLoop=1;jettySize=auto;html=1;endArrow=none;startFill=0;" edge="1" parent="1" source="wrkvcQ_q3QfgYqhIHPEw-190" target="wrkvcQ_q3QfgYqhIHPEw-174">
          <mxGeometry relative="1" as="geometry" />
        </mxCell>
        <mxCell id="wrkvcQ_q3QfgYqhIHPEw-192" value="" style="edgeStyle=orthogonalEdgeStyle;rounded=0;orthogonalLoop=1;jettySize=auto;html=1;endArrow=none;startFill=0;" edge="1" parent="1" source="wrkvcQ_q3QfgYqhIHPEw-190" target="wrkvcQ_q3QfgYqhIHPEw-183">
          <mxGeometry relative="1" as="geometry" />
        </mxCell>
        <mxCell id="wrkvcQ_q3QfgYqhIHPEw-190" value="Contém" style="rhombus;whiteSpace=wrap;html=1;" vertex="1" parent="1">
          <mxGeometry x="640" y="690" width="80" height="80" as="geometry" />
        </mxCell>
        <mxCell id="wrkvcQ_q3QfgYqhIHPEw-195" value="1" style="text;html=1;align=center;verticalAlign=middle;resizable=0;points=[];autosize=1;strokeColor=none;fillColor=none;" vertex="1" parent="1">
          <mxGeometry x="410" y="50" width="30" height="30" as="geometry" />
        </mxCell>
        <mxCell id="wrkvcQ_q3QfgYqhIHPEw-196" value="0..*" style="text;html=1;align=center;verticalAlign=middle;resizable=0;points=[];autosize=1;strokeColor=none;fillColor=none;" vertex="1" parent="1">
          <mxGeometry x="140" y="670" width="40" height="30" as="geometry" />
        </mxCell>
        <mxCell id="wrkvcQ_q3QfgYqhIHPEw-198" value="1" style="text;html=1;align=center;verticalAlign=middle;resizable=0;points=[];autosize=1;strokeColor=none;fillColor=none;" vertex="1" parent="1">
          <mxGeometry x="200" y="50" width="30" height="30" as="geometry" />
        </mxCell>
        <mxCell id="wrkvcQ_q3QfgYqhIHPEw-199" value="1" style="text;html=1;align=center;verticalAlign=middle;resizable=0;points=[];autosize=1;strokeColor=none;fillColor=none;" vertex="1" parent="1">
          <mxGeometry x="140" y="80" width="30" height="30" as="geometry" />
        </mxCell>
        <mxCell id="wrkvcQ_q3QfgYqhIHPEw-200" value="1" style="text;html=1;align=center;verticalAlign=middle;resizable=0;points=[];autosize=1;strokeColor=none;fillColor=none;" vertex="1" parent="1">
          <mxGeometry x="140" y="330" width="30" height="30" as="geometry" />
        </mxCell>
        <mxCell id="wrkvcQ_q3QfgYqhIHPEw-201" value="1" style="text;html=1;align=center;verticalAlign=middle;resizable=0;points=[];autosize=1;strokeColor=none;fillColor=none;" vertex="1" parent="1">
          <mxGeometry x="140" y="420" width="30" height="30" as="geometry" />
        </mxCell>
        <mxCell id="wrkvcQ_q3QfgYqhIHPEw-202" value="0..*" style="text;html=1;align=center;verticalAlign=middle;resizable=0;points=[];autosize=1;strokeColor=none;fillColor=none;" vertex="1" parent="1">
          <mxGeometry x="200" y="730" width="40" height="30" as="geometry" />
        </mxCell>
        <mxCell id="wrkvcQ_q3QfgYqhIHPEw-203" value="0..*" style="text;html=1;align=center;verticalAlign=middle;resizable=0;points=[];autosize=1;strokeColor=none;fillColor=none;" vertex="1" parent="1">
          <mxGeometry x="760" y="730" width="40" height="30" as="geometry" />
        </mxCell>
        <mxCell id="wrkvcQ_q3QfgYqhIHPEw-208" value="1" style="text;html=1;align=center;verticalAlign=middle;resizable=0;points=[];autosize=1;strokeColor=none;fillColor=none;" vertex="1" parent="1">
          <mxGeometry x="860" y="670" width="30" height="30" as="geometry" />
        </mxCell>
        <mxCell id="wrkvcQ_q3QfgYqhIHPEw-209" value="1..*" style="text;html=1;align=center;verticalAlign=middle;resizable=0;points=[];autosize=1;strokeColor=none;fillColor=none;" vertex="1" parent="1">
          <mxGeometry x="560" y="730" width="40" height="30" as="geometry" />
        </mxCell>
        <mxCell id="wrkvcQ_q3QfgYqhIHPEw-210" value="1..*" style="text;html=1;align=center;verticalAlign=middle;resizable=0;points=[];autosize=1;strokeColor=none;fillColor=none;" vertex="1" parent="1">
          <mxGeometry x="400" y="730" width="40" height="30" as="geometry" />
        </mxCell>
        <mxCell id="wrkvcQ_q3QfgYqhIHPEw-211" value="1" style="text;html=1;align=center;verticalAlign=middle;resizable=0;points=[];autosize=1;strokeColor=none;fillColor=none;" vertex="1" parent="1">
          <mxGeometry x="860" y="420" width="30" height="30" as="geometry" />
        </mxCell>
        <mxCell id="wrkvcQ_q3QfgYqhIHPEw-212" value="0..1" style="text;html=1;align=center;verticalAlign=middle;resizable=0;points=[];autosize=1;strokeColor=none;fillColor=none;" vertex="1" parent="1">
          <mxGeometry x="860" y="80" width="40" height="30" as="geometry" />
        </mxCell>
        <mxCell id="wrkvcQ_q3QfgYqhIHPEw-213" value="1" style="text;html=1;align=center;verticalAlign=middle;resizable=0;points=[];autosize=1;strokeColor=none;fillColor=none;" vertex="1" parent="1">
          <mxGeometry x="860" y="330" width="30" height="30" as="geometry" />
        </mxCell>
        <mxCell id="wrkvcQ_q3QfgYqhIHPEw-214" value="1" style="text;html=1;align=center;verticalAlign=middle;resizable=0;points=[];autosize=1;strokeColor=none;fillColor=none;" vertex="1" parent="1">
          <mxGeometry x="500" y="80" width="30" height="30" as="geometry" />
        </mxCell>
        <mxCell id="wrkvcQ_q3QfgYqhIHPEw-215" value="0..*" style="text;html=1;align=center;verticalAlign=middle;resizable=0;points=[];autosize=1;strokeColor=none;fillColor=none;" vertex="1" parent="1">
          <mxGeometry x="800" y="670" width="40" height="30" as="geometry" />
        </mxCell>
      </root>
    </mxGraphModel>
  </diagram>
</mxfile>
